<?xml version="1.0" standalone="no"?>
<!DOCTYPE svg PUBLIC "-//W3C//DTD SVG 20010904//EN"
 "http://www.w3.org/TR/2001/REC-SVG-20010904/DTD/svg10.dtd">
<svg version="1.0" xmlns="http://www.w3.org/2000/svg"
 width="500.000000pt" height="500.000000pt" viewBox="0 0 500.000000 500.000000"
 preserveAspectRatio="xMidYMid meet">
<metadata>
Created by potrace 1.14, written by Peter Selinger 2001-2017
</metadata>
<g transform="translate(0.000000,500.000000) scale(0.100000,-0.100000)"
fill="#000000" stroke="none">
<path d="M2417 4744 c-1 -1 -49 -4 -107 -8 -458 -27 -944 -236 -1304 -560
-250 -225 -423 -463 -573 -791 -37 -80 -105 -283 -124 -371 -7 -32 -13 -61
-14 -64 -1 -3 -5 -27 -10 -55 -4 -27 -9 -59 -11 -70 -11 -57 -18 -176 -18
-310 1 -141 11 -332 19 -345 2 -3 6 -24 9 -46 4 -22 9 -51 12 -64 3 -14 7 -36
10 -50 19 -97 63 -233 116 -364 300 -732 973 -1256 1758 -1372 124 -18 416
-24 535 -11 136 15 151 17 220 32 39 9 81 18 95 21 14 2 70 18 125 35 432 133
807 388 1094 743 232 287 411 680 466 1026 4 25 9 54 11 65 18 94 24 362 11
510 -8 91 -12 120 -43 290 -9 54 -73 263 -104 340 -269 677 -866 1195 -1568
1361 -57 13 -120 27 -140 30 -20 2 -48 7 -62 9 -68 12 -393 27 -403 19z"/>
</g>
</svg>
